<svg width="25" height="24" viewBox="0 0 25 24" fill="none" xmlns="http://www.w3.org/2000/svg">
<g id="User Md/ 24 / Monochrome">
<path id="Vector" d="M18.4985 8.06429L6.50265 8.109L6.22558 4.78353C6.13667 4.02559 6.33993 3.26226 6.79399 2.6489C7.24804 2.03554 7.91877 1.61826 8.66964 1.482L9.45899 1.33871C11.4713 0.973505 13.5329 0.973729 15.5451 1.33937L16.3311 1.48217C17.0818 1.61858 17.7523 2.03589 18.2062 2.6492C18.6601 3.26251 18.8633 4.02572 18.7744 4.78353L18.4985 8.06429Z" fill="#7D8186"/>
<path id="Vector_2" opacity="0.4" d="M6.50891 8.10901C6.55317 9.67262 7.2069 11.157 8.33055 12.2452C9.4542 13.3334 10.9587 13.9393 12.523 13.9334C14.0872 13.9276 15.5871 13.3105 16.7026 12.2139C17.8181 11.1174 18.4608 9.62816 18.4934 8.06427L6.50891 8.10901Z" fill="#7D8186"/>
<path id="Vector_3" d="M17.6981 13.3847V13.3848L13.2071 17.8758C13.1142 17.9687 13.004 18.0423 12.8827 18.0926C12.7614 18.1429 12.6313 18.1687 12.5 18.1687C12.3687 18.1687 12.2387 18.1429 12.1174 18.0926C11.9961 18.0423 11.8858 17.9687 11.793 17.8758L7.302 13.3848V13.3847C5.99354 14.1771 4.88551 15.2607 4.06409 16.5511C3.24268 17.8416 2.73002 19.3041 2.566 20.825C2.55079 20.9647 2.56517 21.1059 2.60819 21.2396C2.65122 21.3734 2.72193 21.4965 2.81572 21.6011C2.9095 21.7056 3.02426 21.7893 3.15253 21.8465C3.28079 21.9038 3.41967 21.9334 3.56014 21.9334H21.4399C21.5804 21.9334 21.7193 21.9038 21.8475 21.8465C21.9758 21.7893 22.0906 21.7056 22.1844 21.6011C22.2781 21.4965 22.3489 21.3734 22.3919 21.2396C22.4349 21.1059 22.4493 20.9647 22.4341 20.825C22.2701 19.3041 21.7574 17.8416 20.936 16.5511C20.1146 15.2607 19.0065 14.1771 17.6981 13.3847Z" fill="#7D8186"/>
<path id="Vector_4" opacity="0.6" d="M16.1907 12.6541C15.1354 13.4748 13.8366 13.9204 12.4997 13.9204C11.1627 13.9204 9.86397 13.4748 8.80868 12.6539C8.2869 12.855 7.7829 13.0995 7.30197 13.3848L11.793 17.8758C11.8858 17.9687 11.996 18.0423 12.1173 18.0926C12.2387 18.1429 12.3687 18.1687 12.5 18.1687C12.6313 18.1687 12.7613 18.1429 12.8827 18.0926C13.004 18.0423 13.1142 17.9687 13.207 17.8758L17.698 13.3848C17.217 13.0994 16.7129 12.8549 16.191 12.6538L16.1907 12.6541Z" fill="#7D8186"/>
</g>
</svg>
